<svg xmlns="http://www.w3.org/2000/svg" width="677" height="369" viewBox="0 0 677 369">
<g>
<path d="M 96.80 204.80 C94.96,206.64 85.99,206.17 82.00,204.04 C76.46,201.07 69.97,193.78 68.95,189.39 C67.17,181.74 67.79,173.03 70.42,168.59 C73.85,162.78 80.91,157.25 86.50,156.00 C96.95,153.66 105.62,157.27 112.16,166.69 C115.14,170.99 115.53,172.35 115.84,179.54 C116.15,186.61 115.90,188.02 113.84,191.25 C112.55,193.26 110.77,194.93 109.87,194.96 C108.97,194.98 106.72,192.99 104.87,190.52 C103.02,188.06 100.69,185.78 99.70,185.44 C97.39,184.66 91.00,189.44 91.00,191.96 C91.00,192.98 92.57,195.70 94.50,198.00 C98.38,202.64 98.53,203.07 96.80,204.80 ZM 83.50 202.84 C87.75,205.04 95.45,205.70 96.53,203.96 C96.88,203.38 95.01,200.39 92.37,197.30 L 87.58 191.68 L 92.51 187.34 C95.22,184.95 98.21,183.00 99.14,183.00 C100.08,183.00 103.06,185.49 105.78,188.54 L 110.72 194.08 L 112.61 191.29 C115.42,187.14 115.22,174.96 112.26,169.35 C107.73,160.79 99.01,156.21 89.62,157.46 C77.54,159.06 70.00,168.15 70.00,181.12 C70.00,190.79 74.64,198.25 83.50,202.84 ZM 174.85 219.49 C160.54,226.15 145.73,218.74 142.92,203.51 C142.39,200.64 142.07,190.46 142.23,180.89 L 142.50 163.50 L 151.21 163.21 L 159.91 162.92 L 160.21 181.46 C160.48,199.02 159.97,204.03 158.62,196.75 C158.29,194.96 157.98,186.86 157.93,178.75 L 157.84 164.00 L 151.39 164.00 C145.33,164.00 144.89,164.16 143.94,166.67 C143.33,168.25 143.07,176.51 143.28,186.94 C143.64,204.04 143.73,204.68 146.41,209.25 C150.46,216.16 153.99,218.73 160.59,219.55 C166.40,220.28 172.99,218.91 176.08,216.32 C178.27,214.48 179.73,214.66 182.29,217.09 C184.08,218.78 185.42,219.09 189.31,218.73 C191.95,218.48 194.65,217.75 195.31,217.09 C196.87,215.53 197.32,167.10 195.79,165.25 C194.58,163.79 186.19,163.60 184.00,164.98 C182.80,165.74 182.40,169.27 182.00,182.76 C181.59,196.72 181.19,200.06 179.70,202.34 C176.27,207.57 167.14,208.75 162.31,204.59 C160.76,203.26 159.83,201.84 160.24,201.43 C160.65,201.02 162.09,201.88 163.44,203.34 C166.35,206.49 172.18,206.97 175.88,204.37 C180.17,201.36 181.00,197.35 181.00,179.53 L 181.00 163.00 L 199.03 163.00 L 198.50 220.50 L 190.17 220.79 C182.49,221.06 181.79,220.92 181.30,219.04 C181.01,217.92 180.64,217.00 180.48,217.00 C180.33,217.00 177.79,218.12 174.85,219.49 ZM 407.70 204.50 C406.52,205.32 404.87,205.91 404.03,205.80 C403.19,205.69 398.92,205.44 394.55,205.25 C390.17,205.06 386.04,204.45 385.37,203.89 C383.80,202.59 384.33,189.51 386.03,187.46 C386.92,186.40 389.46,186.00 395.37,186.01 C406.42,186.03 407.56,186.47 410.04,191.59 C411.87,195.37 412.00,196.46 411.01,199.48 C410.37,201.41 408.88,203.67 407.70,204.50 ZM 282.74 218.97 C277.59,221.55 275.54,222.00 269.09,222.00 C262.79,222.00 260.48,221.51 255.50,219.12 C244.23,213.72 238.85,205.44 238.24,192.58 C237.89,185.03 238.08,184.08 241.18,178.02 C244.81,170.92 251.70,164.78 258.00,163.00 C263.99,161.31 277.98,161.81 282.50,163.87 C287.63,166.21 292.68,170.48 294.52,174.04 L 295.97 176.84 L 289.45 180.42 C285.86,182.39 282.41,184.00 281.77,184.00 C281.13,184.00 279.38,182.82 277.88,181.39 C274.69,178.33 267.55,177.11 263.27,178.89 C261.74,179.52 259.43,181.61 258.11,183.53 C256.04,186.57 255.80,187.82 256.27,193.05 C256.86,199.55 257.85,201.32 262.50,204.16 C264.15,205.17 264.85,205.99 264.06,206.00 C260.75,206.00 256.13,201.54 254.90,197.15 C253.04,190.50 253.38,187.50 256.51,182.98 C261.68,175.53 269.55,174.06 277.46,179.08 L 282.32 182.16 L 286.91 179.64 C294.43,175.52 293.43,172.57 282.43,166.42 C277.03,163.40 275.45,163.00 269.05,163.00 C262.67,163.00 260.98,163.43 255.01,166.56 C251.28,168.52 247.32,171.11 246.21,172.31 C243.03,175.76 239.00,186.45 239.00,191.43 C239.00,201.31 245.89,212.61 254.62,217.06 C259.07,219.33 268.25,220.49 274.41,219.57 C278.42,218.96 286.64,214.43 290.85,210.49 C292.36,209.08 291.55,205.00 289.76,205.00 C289.15,205.00 287.95,204.38 287.08,203.62 C283.97,200.90 281.47,200.86 278.42,203.49 C276.81,204.87 274.90,206.00 274.17,206.00 C273.44,206.00 274.97,204.38 277.56,202.41 L 282.26 198.81 L 288.56 201.88 C292.02,203.57 295.14,205.41 295.49,205.98 C296.71,207.96 288.96,215.86 282.74,218.97 ZM 126.25 220.08 C125.92,220.39 125.60,220.68 125.30,220.96 C121.18,224.80 119.64,226.23 118.35,226.03 C117.49,225.90 116.74,225.04 115.40,223.67 C110.74,218.91 110.08,217.04 114.39,220.79 L 118.17 224.09 L 121.34 222.12 C123.08,221.04 125.14,219.05 125.93,217.71 C127.22,215.50 127.15,215.01 125.18,212.50 C122.64,209.28 122.44,206.50 124.49,203.00 C130.41,192.89 131.38,189.67 131.33,180.33 C131.29,172.70 130.89,170.43 128.96,166.83 C127.68,164.45 125.77,160.82 124.72,158.77 C122.90,155.21 119.52,151.87 113.33,147.50 C102.57,139.90 81.77,139.43 72.76,146.59 C70.42,148.46 67.96,149.98 67.29,149.99 C65.42,150.01 62.23,153.83 57.69,161.50 C53.60,168.41 53.55,168.65 53.17,179.70 C52.80,190.55 52.89,191.11 55.86,197.20 C60.52,206.74 69.57,215.38 77.75,218.08 C79.54,218.67 81.00,219.58 81.00,220.09 C81.00,220.61 79.31,220.33 77.25,219.47 C46.30,206.61 41.84,164.16 69.58,146.41 C77.62,141.26 84.75,139.62 95.71,140.39 C106.03,141.11 108.05,141.78 116.00,147.10 C123.11,151.86 125.10,154.11 129.16,162.00 C132.40,168.31 132.50,168.86 132.50,180.50 C132.50,191.65 132.30,192.93 129.63,198.50 C128.06,201.80 126.14,205.22 125.37,206.09 C124.15,207.48 124.36,208.18 126.99,211.48 C128.64,213.57 130.00,215.57 130.00,215.93 C130.00,216.30 128.31,218.16 126.25,220.08 ZM 626.23 219.08 C621.60,223.23 615.07,223.22 610.92,219.08 C608.45,216.60 608.00,215.36 608.00,211.00 C608.00,206.64 608.45,205.40 610.92,202.92 C615.07,198.78 621.60,198.77 626.23,202.92 C629.12,205.50 629.50,206.43 629.50,211.00 C629.50,215.57 629.12,216.50 626.23,219.08 ZM 386.49 201.98 C387.08,203.82 387.98,204.00 396.38,204.00 C407.38,204.00 410.01,202.49 409.98,196.21 C409.97,191.94 409.35,190.75 406.32,189.15 C403.26,187.54 387.34,187.62 386.78,189.25 C386.02,191.45 385.83,199.89 386.49,201.98 ZM 227.03 154.13 C221.17,159.98 211.24,156.93 209.44,148.73 C206.89,137.11 224.40,131.89 229.54,142.73 C231.57,147.00 230.83,150.32 227.03,154.13 ZM 534.80 213.59 L 534.50 220.50 L 528.50 220.77 C524.23,220.96 522.93,220.75 524.00,220.03 C524.83,219.48 526.65,219.02 528.05,219.02 C531.77,218.99 533.00,217.20 533.00,211.80 C533.00,207.02 532.99,207.00 529.63,207.00 C527.74,207.00 525.11,206.09 523.63,204.93 C521.05,202.90 521.00,202.62 521.00,190.98 C521.00,179.85 521.14,179.02 523.22,177.56 C524.44,176.70 526.43,176.00 527.64,176.00 C532.01,176.00 533.00,174.99 533.00,170.49 C533.00,166.57 532.72,166.10 529.85,165.10 C528.12,164.49 525.92,164.00 524.97,164.00 C522.16,164.00 521.01,161.64 520.87,155.62 C520.79,152.51 520.39,149.74 519.97,149.48 C519.54,149.22 516.57,149.60 513.36,150.33 L 507.52 151.65 L 506.70 156.55 C505.70,162.54 504.74,163.77 500.46,164.57 C497.63,165.11 497.05,165.69 496.72,168.35 C496.38,171.00 496.29,170.83 496.16,167.31 L 496.00 163.11 L 504.50 162.50 L 505.09 151.17 L 511.95 149.08 L 512.24 149.00 C517.94,147.26 520.59,146.46 521.86,147.44 C522.99,148.30 523.05,150.54 523.21,154.75 L 523.50 162.50 L 529.25 162.80 L 535.00 163.10 L 535.00 170.07 C535.00,176.64 534.85,177.11 532.43,178.02 C531.02,178.56 528.32,179.00 526.43,179.00 L 523.00 179.00 L 523.00 190.31 C523.00,200.47 523.22,201.86 525.13,203.91 C526.69,205.58 527.98,206.05 529.93,205.66 C534.38,204.77 535.13,205.99 534.80,213.59 ZM 321.78 208.68 L 321.50 220.50 L 313.49 220.79 C308.11,220.98 305.07,220.67 304.24,219.84 C303.33,218.93 303.00,212.54 303.00,195.63 C303.00,183.00 303.20,172.87 303.44,173.11 C303.68,173.35 304.16,183.41 304.50,195.46 C304.84,207.52 305.34,217.74 305.62,218.19 C306.40,219.46 317.46,219.14 318.80,217.80 C319.58,217.02 320.00,212.98 320.00,206.30 C320.00,200.20 320.41,195.94 321.00,195.85 C321.55,195.77 322.45,195.65 323.00,195.60 C323.55,195.54 325.46,197.53 327.25,200.01 C329.04,202.49 333.18,207.77 336.45,211.74 L 342.40 218.97 L 347.95 218.36 C351.00,218.02 353.89,217.39 354.38,216.95 C355.34,216.07 352.00,210.13 348.02,205.66 C345.25,202.54 343.59,199.00 344.90,199.00 C346.13,199.00 359.26,217.04 359.39,218.91 C359.48,220.25 358.12,220.50 350.55,220.50 L 341.59 220.50 L 332.71 209.00 C327.83,202.68 323.43,197.35 322.95,197.18 C322.46,197.00 321.94,202.18 321.78,208.68 ZM 611.25 217.59 C612.97,219.41 614.57,219.97 618.06,219.98 C622.01,220.00 622.93,219.59 624.91,216.90 C629.63,210.52 626.86,203.05 619.26,201.65 C616.58,201.16 615.39,201.59 612.51,204.13 C609.59,206.69 609.00,207.89 609.00,211.21 C609.00,214.00 609.69,215.94 611.25,217.59 ZM 587.41 218.99 C580.14,222.67 567.63,222.95 560.00,219.60 C553.50,216.74 546.53,210.15 543.89,204.34 C539.25,194.18 540.75,181.49 547.65,172.64 C551.24,168.04 558.23,163.00 561.03,163.00 C562.94,163.00 558.92,165.93 556.95,165.97 C555.13,166.01 548.00,173.04 548.00,174.79 C548.00,175.46 547.53,176.00 546.95,176.00 C543.52,176.00 541.61,194.54 544.33,201.52 C546.67,207.56 552.34,213.83 558.00,216.65 C562.85,219.06 564.68,219.39 573.50,219.44 C584.14,219.50 585.22,219.11 592.66,212.39 C596.02,209.34 595.60,208.19 590.27,205.90 L 585.54 203.87 L 581.41 205.94 C578.90,207.19 575.56,207.95 572.89,207.87 C568.70,207.74 568.76,207.70 574.30,207.00 C578.07,206.51 580.90,205.51 582.37,204.13 C583.61,202.96 585.08,202.00 585.64,202.00 C587.91,202.00 598.00,208.26 598.00,209.67 C598.00,211.82 593.18,216.06 587.41,218.99 ZM 227.67 219.75 C226.84,221.07 212.91,221.58 211.67,220.33 C211.30,219.97 211.09,214.23 211.20,207.58 L 211.40 195.50 L 211.95 206.46 C212.48,217.09 212.57,217.44 215.00,218.11 C219.51,219.36 222.97,219.03 224.81,217.19 C226.47,215.53 226.62,213.30 226.52,191.29 C226.44,172.84 226.11,166.83 225.09,165.60 C223.50,163.69 218.48,163.54 215.00,165.29 C212.56,166.53 212.49,166.87 211.96,180.53 L 211.41 194.50 L 211.00 163.00 L 219.42 163.00 C227.82,163.00 227.84,163.01 228.34,165.75 C229.13,170.17 228.54,218.38 227.67,219.75 ZM 456.53 241.22 C454.35,242.35 449.74,243.49 446.30,243.77 C438.91,244.36 438.76,244.18 439.20,234.89 L 439.50 228.50 L 443.94 227.91 C447.47,227.44 449.07,226.53 451.69,223.49 C454.04,220.77 455.00,220.17 455.00,221.41 C455.00,224.28 449.53,229.00 446.20,229.00 C442.24,229.00 440.82,231.00 441.19,236.07 C441.61,241.82 443.30,242.71 450.65,241.04 C455.33,239.98 457.34,238.84 460.71,235.41 C465.77,230.22 470.00,223.74 470.00,221.15 C470.00,220.11 471.30,216.16 472.89,212.38 C474.48,208.60 476.60,202.80 477.60,199.50 C478.60,196.20 480.00,192.79 480.71,191.92 C481.42,191.05 482.00,189.83 482.00,189.21 C482.00,187.41 485.28,181.00 486.20,181.00 C486.65,181.00 486.30,182.69 485.41,184.75 C484.52,186.81 482.74,191.43 481.46,195.00 C480.17,198.57 477.70,205.32 475.97,210.00 C474.24,214.68 472.11,220.52 471.25,223.00 C468.33,231.35 463.09,237.84 456.53,241.22 ZM 213.80 153.75 C214.67,154.44 217.06,155.00 219.10,155.00 C222.03,155.00 223.37,154.34 225.41,151.92 C226.83,150.23 228.00,148.27 228.00,147.57 C228.00,144.81 225.69,139.91 223.96,138.98 C219.77,136.74 213.62,138.78 212.19,142.89 C210.97,146.39 211.83,152.20 213.80,153.75 ZM 601.39 196.42 C600.87,197.79 598.11,198.00 580.89,198.00 C568.30,198.00 561.00,197.63 561.00,197.00 C561.00,196.37 567.59,195.99 578.75,195.98 C588.51,195.98 597.16,195.55 597.97,195.04 C599.67,193.96 599.81,187.79 598.27,181.27 C597.13,176.41 591.52,169.66 585.70,166.13 C582.66,164.29 579.64,163.60 572.14,163.03 L 562.50 162.29 L 571.78 162.15 C581.84,161.99 585.80,163.08 591.83,167.69 C598.54,172.80 604.07,189.43 601.39,196.42 ZM 454.38 215.25 C454.69,216.21 454.49,217.00 453.94,217.00 C453.39,217.00 452.70,216.21 452.40,215.25 C452.10,214.29 450.58,210.35 449.01,206.50 C445.24,197.22 433.38,166.97 432.64,164.75 C432.12,163.17 432.95,163.00 441.41,163.00 C450.68,163.00 450.77,163.02 451.82,165.75 C455.24,174.64 457.85,183.00 457.20,183.00 C456.25,183.00 451.00,171.06 451.00,168.90 C451.00,165.78 447.61,164.00 441.64,164.00 C434.80,164.00 433.95,165.21 436.49,171.31 C437.45,173.61 439.52,179.04 441.09,183.36 C442.65,187.68 444.34,191.73 444.84,192.36 C445.33,192.99 446.29,195.30 446.97,197.50 C447.64,199.70 449.47,204.20 451.01,207.50 C452.56,210.80 454.08,214.29 454.38,215.25 ZM 423.34 173.57 C422.26,175.67 420.83,177.56 420.18,177.77 C419.36,178.05 419.43,177.30 420.42,175.33 C424.85,166.53 424.81,157.24 420.31,151.34 C418.93,149.53 415.39,146.87 412.45,145.43 C407.52,143.02 406.04,142.81 393.80,142.75 L 380.50 142.69 L 390.50 141.93 C407.51,140.63 414.61,142.37 420.74,149.36 C426.49,155.91 427.52,165.52 423.34,173.57 ZM 468.32 186.00 C464.20,196.49 463.54,195.31 467.37,184.31 C468.68,180.56 470.76,174.24 472.00,170.25 L 474.25 163.00 L 483.73 163.00 C490.90,163.00 493.10,163.31 492.75,164.25 C492.50,164.94 491.29,168.53 490.07,172.24 C488.85,175.95 487.36,179.28 486.78,179.64 C485.52,180.41 486.09,177.52 488.40,171.29 C490.77,164.92 489.91,163.86 482.65,164.21 C476.70,164.49 476.50,164.60 474.35,168.43 C473.15,170.59 471.87,173.97 471.51,175.93 C471.16,177.89 469.73,182.43 468.32,186.00 ZM 520.98 220.25 C521.02,221.62 518.52,221.03 513.99,218.60 C506.42,214.56 505.00,210.57 505.00,193.40 L 505.00 179.11 L 500.75 178.81 C497.04,178.54 496.47,178.18 496.28,176.00 C496.15,174.62 496.30,174.06 496.61,174.75 C496.92,175.44 498.15,176.00 499.36,176.00 C500.57,176.00 502.56,176.70 503.78,177.56 C505.89,179.04 506.00,179.80 506.02,192.81 C506.04,209.68 507.37,213.00 515.73,217.00 C518.61,218.38 520.97,219.84 520.98,220.25 ZM 584.00 185.44 C584.00,186.77 582.34,186.98 572.75,186.85 L 561.50 186.70 L 571.63 185.99 C577.20,185.59 582.26,184.96 582.88,184.58 C583.52,184.18 584.00,184.54 584.00,185.44 ZM 565.99 205.75 C566.00,205.89 565.16,206.00 564.12,206.00 C561.94,206.00 560.55,204.50 559.49,201.00 C558.78,198.67 558.98,198.74 562.35,202.00 C564.35,203.93 565.98,205.61 565.99,205.75 Z" fill="rgb(223,92,67)"/>
<path d="M 125.30 220.96 C125.60,220.69 125.91,220.40 126.23,220.10 C125.77,220.52 125.35,220.92 124.95,221.29 C121.20,224.79 119.68,226.21 118.36,226.04 C117.32,225.90 116.40,224.76 114.61,222.86 C111.13,219.16 110.47,218.86 107.15,219.44 C105.14,219.79 98.41,220.34 92.19,220.65 C84.06,221.06 81.73,221.15 78.65,219.98 C80.03,220.41 81.00,220.48 81.00,220.09 C81.00,219.58 79.54,218.67 77.75,218.08 C69.57,215.38 60.52,206.74 55.86,197.20 C52.89,191.11 52.80,190.55 53.17,179.70 C53.55,168.65 53.60,168.41 57.69,161.50 C62.23,153.83 65.42,150.01 67.29,149.99 C67.96,149.98 70.42,148.46 72.76,146.59 C81.77,139.43 102.57,139.90 113.33,147.50 C119.52,151.87 122.90,155.21 124.72,158.77 C125.77,160.82 127.68,164.45 128.96,166.83 C130.89,170.43 131.29,172.70 131.33,180.33 C131.38,189.67 130.41,192.89 124.49,203.00 C122.44,206.50 122.64,209.28 125.18,212.50 C127.15,215.01 127.22,215.50 125.93,217.71 C125.14,219.05 123.08,221.04 121.34,222.12 L 118.17 224.09 L 114.39 220.79 C110.08,217.04 110.74,218.91 115.40,223.67 C116.74,225.04 117.49,225.90 118.35,226.03 C119.64,226.23 121.18,224.80 125.30,220.96 ZM 417.58 216.45 L 412.78 219.43 L 391.14 219.82 C379.24,220.03 369.16,219.86 368.75,219.44 C367.72,218.38 367.80,143.24 368.83,142.61 C369.28,142.32 378.62,141.99 389.58,141.86 C390.34,141.85 391.07,141.84 391.77,141.83 C391.35,141.86 390.93,141.89 390.50,141.93 L 380.50 142.69 L 393.80 142.75 C406.04,142.81 407.52,143.02 412.45,145.43 C415.39,146.87 418.93,149.53 420.31,151.34 C424.81,157.24 424.85,166.53 420.42,175.33 C419.43,177.30 419.36,178.05 420.18,177.77 C420.70,177.60 421.70,176.37 422.64,174.83 C422.15,175.76 421.62,176.68 421.03,177.61 C419.83,179.50 420.07,180.21 423.32,184.47 C425.32,187.09 427.24,190.78 427.60,192.68 C429.30,201.73 425.03,211.85 417.58,216.45 ZM 346.33 200.28 C345.61,199.47 345.10,199.00 344.90,199.00 C343.59,199.00 345.25,202.54 348.02,205.66 C352.00,210.13 355.34,216.07 354.38,216.95 C353.89,217.39 351.00,218.02 347.95,218.36 L 342.40 218.97 L 336.45 211.74 C333.18,207.77 329.04,202.49 327.25,200.01 C325.46,197.53 323.55,195.54 323.00,195.60 C322.45,195.65 321.55,195.77 321.00,195.85 C320.41,195.94 320.00,200.20 320.00,206.30 C320.00,212.98 319.58,217.02 318.80,217.80 C317.46,219.14 306.40,219.46 305.62,218.19 C305.34,217.74 304.84,207.52 304.50,195.46 C304.16,183.41 303.68,173.35 303.44,173.11 C303.44,173.11 303.44,173.10 303.43,173.10 C303.81,156.32 304.51,141.30 305.32,140.78 C307.01,139.71 317.22,139.85 319.00,140.98 C320.23,141.75 320.59,145.75 321.00,163.13 C321.34,177.52 321.86,184.46 322.62,184.71 C323.24,184.91 326.17,181.64 329.12,177.43 C335.90,167.79 338.14,164.59 341.14,163.53 C342.63,163.01 344.31,163.01 346.82,163.02 L 346.85 163.02 C350.51,163.02 354.10,163.41 354.84,163.88 C356.74,165.08 354.84,168.46 346.09,179.45 C342.19,184.36 339.00,189.20 339.00,190.23 C339.00,191.25 340.94,194.20 343.31,196.79 C344.25,197.83 345.27,199.01 346.33,200.28 ZM 565.99 205.75 C565.99,205.70 565.73,205.40 565.31,204.95 C567.64,207.06 568.68,207.08 573.72,206.78 C575.38,206.68 576.72,206.54 577.83,206.32 C576.78,206.60 575.59,206.83 574.30,207.00 C568.76,207.70 568.70,207.74 572.89,207.87 C575.56,207.95 578.90,207.19 581.41,205.94 L 585.54 203.87 L 590.27 205.90 C595.60,208.19 596.02,209.34 592.66,212.39 C585.22,219.11 584.14,219.50 573.50,219.44 C564.68,219.39 562.85,219.06 558.00,216.65 C552.34,213.83 546.67,207.56 544.33,201.52 C541.61,194.54 543.52,176.00 546.95,176.00 C547.53,176.00 548.00,175.46 548.00,174.79 C548.00,173.04 555.13,166.01 556.95,165.97 C558.87,165.93 562.73,163.15 561.16,163.01 C562.21,162.77 563.39,162.60 564.86,162.47 L 572.14 163.03 C579.64,163.60 582.66,164.29 585.70,166.13 C591.52,169.66 597.13,176.41 598.27,181.27 C599.81,187.79 599.67,193.96 597.97,195.04 C597.16,195.55 588.51,195.98 578.75,195.98 C567.59,195.99 561.00,196.37 561.00,197.00 C561.00,197.62 568.10,197.99 580.39,198.00 C569.18,198.00 560.00,198.40 560.00,198.89 C560.00,199.24 560.88,200.41 562.15,201.80 C558.97,198.74 558.80,198.72 559.49,201.00 C560.55,204.50 561.94,206.00 564.12,206.00 C565.16,206.00 566.00,205.89 565.99,205.75 ZM 454.38 215.25 C454.08,214.29 452.56,210.80 451.01,207.50 C449.47,204.20 447.64,199.70 446.97,197.50 C446.29,195.30 445.33,192.99 444.84,192.36 C444.34,191.73 442.65,187.68 441.09,183.36 C439.52,179.04 437.45,173.61 436.49,171.31 C433.95,165.21 434.80,164.00 441.64,164.00 C447.61,164.00 451.00,165.78 451.00,168.90 C451.00,171.06 456.25,183.00 457.20,183.00 C457.32,183.00 457.33,182.71 457.24,182.17 C461.14,194.60 461.63,195.50 463.03,195.50 C463.82,195.50 464.61,194.60 464.78,193.50 C464.79,193.41 464.82,193.29 464.85,193.15 C464.97,193.77 466.17,191.48 468.32,186.00 C469.73,182.43 471.16,177.89 471.51,175.93 C471.87,173.97 473.15,170.59 474.35,168.43 C476.50,164.60 476.70,164.49 482.65,164.21 C489.91,163.86 490.77,164.92 488.40,171.29 C486.09,177.52 485.52,180.41 486.78,179.64 C487.14,179.41 487.85,178.04 488.63,176.14 C487.15,180.22 485.50,184.67 484.03,188.50 C482.25,193.14 480.23,198.47 478.94,201.93 C479.91,199.27 480.82,196.75 481.46,195.00 C482.74,191.43 484.52,186.81 485.41,184.75 C486.30,182.69 486.65,181.00 486.20,181.00 C485.28,181.00 482.00,187.41 482.00,189.21 C482.00,189.83 481.42,191.05 480.71,191.92 C480.00,192.79 478.60,196.20 477.60,199.50 C476.60,202.80 474.48,208.60 472.89,212.38 C471.30,216.16 470.00,220.11 470.00,221.15 C470.00,223.74 465.77,230.22 460.71,235.41 C457.34,238.84 455.33,239.98 450.65,241.04 C443.30,242.71 441.61,241.82 441.19,236.07 C440.82,231.00 442.24,229.00 446.20,229.00 C449.53,229.00 455.00,224.28 455.00,221.41 C455.00,220.40 454.36,220.62 452.83,222.22 C453.82,220.44 454.06,218.48 453.26,216.68 C453.49,216.88 453.72,217.00 453.94,217.00 C454.49,217.00 454.69,216.21 454.38,215.25 ZM 162.36 202.31 C161.39,201.51 160.54,201.13 160.24,201.43 C159.83,201.84 160.76,203.26 162.31,204.59 C167.14,208.75 176.27,207.57 179.70,202.34 C181.19,200.06 181.59,196.72 182.00,182.76 C182.40,169.27 182.80,165.74 184.00,164.98 C186.19,163.60 194.58,163.79 195.79,165.25 C197.32,167.10 196.87,215.53 195.31,217.09 C194.65,217.75 191.95,218.48 189.31,218.73 C185.42,219.09 184.08,218.78 182.29,217.09 C179.73,214.66 178.27,214.48 176.08,216.32 C172.99,218.91 166.40,220.28 160.59,219.55 C153.99,218.73 150.46,216.16 146.41,209.25 C143.73,204.68 143.64,204.04 143.28,186.94 C143.07,176.51 143.33,168.25 143.94,166.67 C144.89,164.16 145.33,164.00 151.39,164.00 L 157.84 164.00 L 157.93 178.75 C157.98,186.86 158.29,194.96 158.62,196.75 C159.56,201.81 160.09,200.94 160.24,194.05 C160.52,198.42 161.11,200.62 162.36,202.31 ZM 96.80 204.80 C98.53,203.07 98.38,202.64 94.50,198.00 C92.57,195.70 91.00,192.98 91.00,191.96 C91.00,189.44 97.39,184.66 99.70,185.44 C100.69,185.78 103.02,188.06 104.87,190.52 C106.72,192.99 108.97,194.98 109.87,194.96 C110.77,194.93 112.55,193.26 113.84,191.25 C115.90,188.02 116.15,186.61 115.84,179.54 C115.53,172.35 115.14,170.99 112.16,166.69 C105.62,157.27 96.95,153.66 86.50,156.00 C80.91,157.25 73.85,162.78 70.42,168.59 C67.79,173.03 67.17,181.74 68.95,189.39 C69.97,193.78 76.46,201.07 82.00,204.04 C85.99,206.17 94.96,206.64 96.80,204.80 ZM 264.06 206.00 C264.74,205.99 264.32,205.38 263.14,204.57 L 263.20 204.60 C267.92,207.04 272.37,206.36 277.56,202.41 C274.97,204.38 273.44,206.00 274.17,206.00 C274.90,206.00 276.81,204.87 278.42,203.49 C281.47,200.86 283.97,200.90 287.08,203.62 C287.95,204.38 289.15,205.00 289.76,205.00 C291.55,205.00 292.36,209.08 290.85,210.49 C286.64,214.43 278.42,218.96 274.41,219.57 C268.25,220.49 259.07,219.33 254.62,217.06 C245.89,212.61 239.00,201.31 239.00,191.43 C239.00,186.45 243.03,175.76 246.21,172.31 C247.32,171.11 251.28,168.52 255.01,166.56 C260.98,163.43 262.67,163.00 269.05,163.00 C275.45,163.00 277.03,163.40 282.43,166.42 C293.43,172.57 294.43,175.52 286.91,179.64 L 282.32 182.16 L 277.46 179.08 C269.55,174.06 261.68,175.53 256.51,182.98 C253.38,187.50 253.04,190.50 254.90,197.15 C256.13,201.54 260.75,206.00 264.06,206.00 ZM 520.98 220.25 C520.97,219.84 518.61,218.38 515.73,217.00 C507.37,213.00 506.04,209.68 506.02,192.81 C506.00,179.80 505.89,179.04 503.78,177.56 C502.56,176.70 500.57,176.00 499.36,176.00 C498.15,176.00 496.92,175.44 496.61,174.75 C496.50,174.51 496.41,174.42 496.35,174.47 L 496.21 170.81 L 495.92 163.12 L 504.50 162.50 L 496.00 163.11 L 496.16 167.31 C496.29,170.83 496.38,171.00 496.72,168.35 C497.05,165.69 497.63,165.11 500.46,164.57 C504.74,163.77 505.70,162.54 506.70,156.55 L 507.52 151.65 L 513.36 150.33 C516.57,149.60 519.54,149.22 519.97,149.48 C520.39,149.74 520.79,152.51 520.87,155.62 C521.01,161.64 522.16,164.00 524.97,164.00 C525.92,164.00 528.12,164.49 529.85,165.10 C532.72,166.10 533.00,166.57 533.00,170.49 C533.00,174.99 532.01,176.00 527.64,176.00 C526.43,176.00 524.44,176.70 523.22,177.56 C521.14,179.02 521.00,179.85 521.00,190.98 C521.00,202.62 521.05,202.90 523.63,204.93 C525.11,206.09 527.74,207.00 529.63,207.00 C532.99,207.00 533.00,207.02 533.00,211.80 C533.00,217.20 531.77,218.99 528.05,219.02 C526.65,219.02 524.83,219.48 524.00,220.03 C523.34,220.47 523.58,220.72 524.87,220.80 C523.46,220.81 522.14,220.75 520.91,220.62 C520.96,220.52 520.98,220.39 520.98,220.25 ZM 211.17 210.36 C211.06,205.24 211.00,198.56 211.00,191.33 L 211.00 163.00 L 211.41 194.50 L 211.96 180.53 C212.49,166.87 212.56,166.53 215.00,165.29 C218.48,163.54 223.50,163.69 225.09,165.60 C226.11,166.83 226.44,172.84 226.52,191.29 C226.62,213.30 226.47,215.53 224.81,217.19 C222.97,219.03 219.51,219.36 215.00,218.11 C212.57,217.44 212.48,217.09 211.95,206.46 L 211.40 195.50 L 211.20 207.58 C211.18,208.53 211.17,209.46 211.17,210.36 ZM 407.70 204.50 C408.88,203.67 410.37,201.41 411.01,199.48 C412.00,196.46 411.87,195.37 410.04,191.59 C407.56,186.47 406.42,186.03 395.37,186.01 C389.46,186.00 386.92,186.40 386.03,187.46 C384.33,189.51 383.80,202.59 385.37,203.89 C386.04,204.45 390.17,205.06 394.55,205.25 C398.92,205.44 403.19,205.69 404.03,205.80 C404.87,205.91 406.52,205.32 407.70,204.50 ZM 386.64 172.22 C386.90,172.65 390.77,173.00 395.24,173.00 C402.21,173.00 403.70,172.69 405.69,170.83 C408.86,167.85 408.79,162.70 405.55,159.45 C403.35,157.26 402.25,157.00 395.10,157.00 C390.07,157.00 386.85,157.43 386.39,158.17 C385.62,159.42 385.83,170.91 386.64,172.22 ZM 611.25 217.59 C609.69,215.94 609.00,214.00 609.00,211.21 C609.00,207.89 609.59,206.69 612.51,204.13 C615.39,201.59 616.58,201.16 619.26,201.65 C626.86,203.05 629.63,210.52 624.91,216.90 C622.93,219.59 622.01,220.00 618.06,219.98 C614.57,219.97 612.97,219.41 611.25,217.59 ZM 213.80 153.75 C211.83,152.20 210.97,146.39 212.19,142.89 C213.62,138.78 219.77,136.74 223.96,138.98 C225.69,139.91 228.00,144.81 228.00,147.57 C228.00,148.27 226.83,150.23 225.41,151.92 C223.37,154.34 222.03,155.00 219.10,155.00 C217.06,155.00 214.67,154.44 213.80,153.75 ZM 584.00 185.44 C584.00,184.54 583.52,184.18 582.88,184.58 C582.64,184.72 581.71,184.91 580.35,185.11 C582.25,184.58 582.99,183.78 582.98,182.62 C582.96,179.51 581.87,178.26 577.59,176.47 C570.48,173.50 560.00,177.75 560.00,183.59 C560.00,185.93 560.22,186.00 567.75,185.99 C569.49,185.99 571.04,185.97 572.44,185.93 C572.17,185.95 571.90,185.97 571.63,185.99 L 561.50 186.70 L 572.75 186.85 C582.34,186.98 584.00,186.77 584.00,185.44 ZM 597.97 176.02 C600.36,180.58 602.00,185.81 602.00,189.85 C602.00,189.90 602.00,189.96 602.00,190.01 C601.64,185.63 600.12,180.44 597.97,176.02 ZM 506.45 210.29 C505.16,207.29 505.00,204.33 505.00,193.40 C505.00,201.50 505.32,206.66 506.45,210.29 ZM 422.63 151.88 C423.68,153.41 424.50,154.99 425.01,156.53 C425.84,159.05 426.12,161.75 425.85,164.56 C426.12,160.09 425.03,155.65 422.63,151.88 ZM 406.38 141.92 C410.13,142.15 411.54,142.68 413.59,143.75 C414.21,144.07 414.83,144.43 415.43,144.83 C412.93,143.34 410.03,142.40 406.38,141.92 ZM 569.83 162.18 L 570.11 162.16 C578.22,161.84 582.40,162.26 586.57,164.35 C582.75,162.52 578.72,162.04 571.78,162.15 ZM 490.55 170.79 C491.59,167.64 492.53,164.85 492.75,164.25 C493.08,163.36 491.15,163.04 484.94,163.00 C489.48,163.03 493.00,163.16 493.00,163.32 C493.00,163.67 492.00,166.68 490.55,170.79 ZM 556.09 165.10 C553.14,166.99 549.79,169.89 547.65,172.64 C547.41,172.96 547.16,173.28 546.93,173.61 C549.28,170.22 552.30,167.32 555.90,165.21 C555.97,165.17 556.03,165.14 556.09,165.10 ZM 496.45 177.05 C496.80,178.31 497.74,178.59 500.75,178.81 L 496.50 178.50 ZM 359.37 218.82 C359.10,217.50 354.69,211.06 350.80,205.87 C355.27,211.70 359.24,217.54 359.37,218.82 ZM 456.53 241.22 C460.04,239.41 463.17,236.72 465.77,233.32 C463.22,236.92 460.35,239.25 456.53,241.22 ZM 515.84 219.55 C513.82,218.85 512.12,217.84 510.67,216.50 C511.62,217.24 512.72,217.92 513.99,218.60 C514.65,218.96 515.27,219.27 515.84,219.55 ZM 168.60 205.92 C171.15,206.11 174.17,205.57 175.88,204.37 C173.82,205.81 171.10,206.31 168.60,205.92 ZM 442.55 190.26 C437.90,178.53 433.36,166.94 432.64,164.75 C433.11,166.16 438.04,178.81 442.55,190.26 ZM 259.15 201.66 C257.31,199.80 256.70,197.60 256.29,193.24 C256.66,197.24 257.44,199.74 259.15,201.66 ZM 449.23 225.94 C447.74,227.10 446.26,227.60 443.94,227.91 L 443.74 227.93 C445.79,227.66 447.67,226.94 449.23,225.94 ZM 596.72 197.77 C594.06,198.02 590.05,198.01 584.06,198.00 C583.06,198.00 582.00,198.00 580.89,198.00 C588.87,198.00 593.74,197.95 596.72,197.77 ZM 453.80 171.07 C453.21,169.44 452.58,167.74 451.92,166.01 C452.51,167.19 453.08,168.82 453.80,171.07 ZM 160.00 162.92 L 160.00 168.36 L 159.91 162.92 ZM 305.17 220.33 C306.51,220.75 308.99,220.91 312.67,220.81 C308.56,220.94 306.42,220.83 305.17,220.33 ZM 448.23 163.13 C446.80,163.00 444.68,163.00 441.41,163.00 C442.25,163.00 443.02,162.99 443.72,162.98 C445.66,162.96 447.10,162.95 448.23,163.13 ZM 472.50 219.49 C473.51,216.69 474.82,213.09 475.97,210.00 C476.13,209.57 476.29,209.13 476.46,208.67 C475.41,211.54 474.13,215.05 473.05,218.00 C472.86,218.51 472.68,219.00 472.50,219.49 ZM 470.98 173.48 C471.35,172.31 471.69,171.21 471.99,170.25 L 474.25 163.00 L 472.00 170.25 C471.70,171.21 471.35,172.32 470.98,173.48 ZM 303.72 218.37 C303.82,218.92 303.93,219.31 304.05,219.56 C304.04,219.54 304.02,219.52 304.00,219.50 C303.90,219.37 303.80,218.99 303.72,218.37 ZM 359.02 219.80 C358.26,220.38 356.06,220.50 350.55,220.50 C356.01,220.50 358.24,220.37 359.02,219.80 ZM 601.95 194.10 C601.92,194.48 601.86,194.81 601.78,195.12 C601.85,194.79 601.91,194.45 601.95,194.10 Z" fill="rgb(249,78,38)"/>
<path d="M 0.00 184.50 L 0.00 0.00 L 338.50 0.00 L 677.00 0.00 L 677.00 184.50 L 677.00 369.00 L 338.50 369.00 L 0.00 369.00 L 0.00 184.50 ZM 456.53 241.22 C464.14,237.30 467.96,231.94 473.05,218.00 C474.76,213.32 476.98,207.25 477.98,204.50 C478.99,201.75 481.71,194.55 484.03,188.50 C487.90,178.43 493.00,164.11 493.00,163.32 C493.00,163.15 488.78,163.00 483.63,163.00 L 474.25 163.00 L 471.99 170.25 C470.75,174.24 468.69,180.65 467.41,184.50 C466.13,188.35 464.95,192.40 464.78,193.50 C464.61,194.60 463.82,195.50 463.03,195.50 C461.49,195.50 461.05,194.40 455.94,178.00 C450.83,161.60 452.19,163.00 441.37,163.00 C432.95,163.00 432.12,163.17 432.64,164.75 C434.10,169.15 450.98,211.69 453.24,216.63 C455.35,221.27 450.51,227.03 443.74,227.93 L 439.50 228.50 L 439.20 234.89 C438.76,244.18 438.91,244.36 446.30,243.77 C449.74,243.49 454.35,242.35 456.53,241.22 ZM 126.25 220.08 C128.31,218.16 130.00,216.30 130.00,215.93 C130.00,215.57 128.64,213.57 126.99,211.48 C124.36,208.18 124.15,207.48 125.37,206.09 C126.14,205.22 128.06,201.80 129.63,198.50 C132.30,192.93 132.50,191.65 132.50,180.50 C132.50,168.86 132.40,168.31 129.16,162.00 C125.10,154.11 123.11,151.86 116.00,147.10 C108.05,141.78 106.03,141.11 95.71,140.39 C84.75,139.62 77.62,141.26 69.58,146.41 C42.94,163.46 45.76,203.92 74.57,218.11 C80.80,221.18 81.04,221.21 92.19,220.65 C98.41,220.34 105.14,219.79 107.15,219.44 C110.47,218.86 111.13,219.16 114.61,222.86 C118.91,227.42 118.16,227.60 126.25,220.08 ZM 174.85 219.49 C177.79,218.12 180.33,217.00 180.48,217.00 C180.64,217.00 181.01,217.92 181.30,219.04 C181.79,220.92 182.49,221.06 190.17,220.79 L 198.50 220.50 L 198.77 191.75 L 199.03 163.00 L 190.02 163.00 L 181.00 163.00 L 181.00 179.53 C181.00,197.35 180.17,201.36 175.88,204.37 C173.12,206.30 167.02,206.51 164.84,204.75 C160.37,201.13 160.00,199.30 160.00,180.74 L 160.00 162.92 L 151.25 163.21 L 142.50 163.50 L 142.23 180.89 C142.07,190.46 142.39,200.64 142.92,203.51 C145.73,218.74 160.54,226.15 174.85,219.49 ZM 282.74 218.97 C288.96,215.86 296.71,207.96 295.49,205.98 C295.14,205.41 292.02,203.57 288.56,201.88 L 282.26 198.81 L 277.56 202.41 C272.37,206.36 267.92,207.04 263.20,204.60 C258.43,202.14 256.86,199.52 256.27,193.09 C255.80,187.81 256.03,186.57 258.11,183.53 C259.43,181.61 261.74,179.52 263.27,178.89 C267.55,177.11 274.69,178.33 277.88,181.39 C279.38,182.82 281.13,184.00 281.77,184.00 C282.41,184.00 285.86,182.39 289.45,180.42 L 295.97 176.84 L 294.52 174.04 C292.68,170.48 287.63,166.21 282.50,163.87 C277.98,161.81 263.99,161.31 258.00,163.00 C251.70,164.78 244.81,170.92 241.18,178.02 C238.08,184.08 237.89,185.03 238.24,192.58 C238.85,205.44 244.23,213.72 255.50,219.12 C260.48,221.51 262.79,222.00 269.09,222.00 C275.54,222.00 277.59,221.55 282.74,218.97 ZM 587.41 218.99 C593.18,216.06 598.00,211.82 598.00,209.67 C598.00,208.26 587.91,202.00 585.64,202.00 C585.08,202.00 583.57,202.99 582.28,204.20 C580.51,205.87 578.41,206.50 573.72,206.78 C567.69,207.14 567.39,207.04 563.75,203.46 C561.69,201.43 560.00,199.37 560.00,198.89 C560.00,198.40 569.18,198.00 580.39,198.00 C603.37,198.00 602.00,198.52 602.00,189.85 C602.00,182.47 596.51,171.11 591.02,167.13 C584.81,162.63 581.00,161.73 570.11,162.16 C561.86,162.50 559.77,162.94 555.90,165.21 C542.98,172.78 537.55,190.46 543.89,204.34 C546.53,210.15 553.50,216.74 560.00,219.60 C567.63,222.95 580.14,222.67 587.41,218.99 ZM 626.23 219.08 C629.12,216.50 629.50,215.57 629.50,211.00 C629.50,206.43 629.12,205.50 626.23,202.92 C621.60,198.77 615.07,198.78 610.92,202.92 C608.45,205.40 608.00,206.64 608.00,211.00 C608.00,215.36 608.45,216.60 610.92,219.08 C615.07,223.22 621.60,223.23 626.23,219.08 ZM 227.67 219.75 C228.54,218.38 229.13,170.17 228.34,165.75 C227.84,163.01 227.82,163.00 219.42,163.00 L 211.00 163.00 L 211.00 191.33 C211.00,206.92 211.30,219.97 211.67,220.33 C212.91,221.58 226.84,221.07 227.67,219.75 ZM 321.78 208.68 C321.94,202.18 322.46,197.00 322.95,197.18 C323.43,197.35 327.83,202.68 332.71,209.00 L 341.59 220.50 L 350.55 220.50 C358.26,220.50 359.48,220.27 359.38,218.84 C359.23,216.91 349.53,203.60 343.31,196.79 C340.94,194.20 339.00,191.25 339.00,190.23 C339.00,189.20 342.19,184.36 346.09,179.45 C354.84,168.46 356.74,165.08 354.84,163.88 C354.10,163.41 350.51,163.02 346.85,163.02 C339.25,163.00 339.28,162.98 329.12,177.43 C326.17,181.64 323.24,184.91 322.62,184.71 C321.86,184.46 321.34,177.52 321.00,163.13 C320.59,145.75 320.23,141.75 319.00,140.98 C317.22,139.85 307.01,139.71 305.32,140.78 C303.48,141.95 302.22,217.36 304.00,219.50 C305.03,220.75 307.01,221.02 313.40,220.79 L 321.50 220.50 L 321.78 208.68 ZM 534.80 213.59 C535.13,205.99 534.38,204.77 529.93,205.66 C527.98,206.05 526.69,205.58 525.13,203.91 C523.22,201.86 523.00,200.47 523.00,190.31 L 523.00 179.00 L 526.43 179.00 C528.32,179.00 531.02,178.56 532.43,178.02 C534.85,177.11 535.00,176.64 535.00,170.07 L 535.00 163.10 L 529.25 162.80 L 523.50 162.50 L 523.21 154.75 C522.87,145.69 522.97,145.74 511.95,149.08 L 505.09 151.17 L 504.80 156.83 L 504.50 162.50 L 500.21 162.81 L 495.92 163.12 L 496.21 170.81 L 496.50 178.50 L 500.75 178.81 L 505.00 179.11 L 505.00 193.40 C505.00,206.29 505.22,208.10 507.25,211.95 C510.74,218.54 516.37,221.12 526.50,220.77 L 534.50 220.50 L 534.80 213.59 ZM 417.58 216.45 C425.03,211.85 429.30,201.73 427.60,192.68 C427.24,190.78 425.32,187.09 423.32,184.47 C420.07,180.21 419.83,179.50 421.03,177.61 C425.69,170.26 427.09,162.83 425.01,156.53 C423.41,151.68 418.70,146.41 413.59,143.75 C409.77,141.76 408.21,141.64 389.58,141.86 C378.62,141.99 369.28,142.32 368.83,142.61 C367.80,143.24 367.72,218.38 368.75,219.44 C369.16,219.86 379.24,220.03 391.14,219.82 L 412.78 219.43 L 417.58 216.45 ZM 227.03 154.13 C230.83,150.32 231.57,147.00 229.54,142.73 C224.40,131.89 206.89,137.11 209.44,148.73 C211.24,156.93 221.17,159.98 227.03,154.13 ZM 83.50 202.84 C74.64,198.25 70.00,190.79 70.00,181.12 C70.00,168.15 77.54,159.06 89.62,157.46 C99.01,156.21 107.73,160.79 112.26,169.35 C115.22,174.96 115.42,187.14 112.61,191.29 L 110.72 194.08 L 105.78 188.54 C103.06,185.49 100.08,183.00 99.14,183.00 C98.21,183.00 95.22,184.95 92.51,187.34 L 87.58 191.68 L 92.37 197.30 C95.01,200.39 96.88,203.38 96.53,203.96 C95.45,205.70 87.75,205.04 83.50,202.84 ZM 560.00 183.59 C560.00,177.75 570.48,173.50 577.59,176.47 C581.87,178.26 582.96,179.51 582.98,182.62 C583.00,185.18 579.42,185.97 567.75,185.99 C560.22,186.00 560.00,185.93 560.00,183.59 ZM 386.49 201.98 C385.83,199.89 386.02,191.45 386.78,189.25 C387.34,187.62 403.26,187.54 406.32,189.15 C409.35,190.75 409.97,191.94 409.98,196.21 C410.01,202.49 407.38,204.00 396.38,204.00 C387.98,204.00 387.08,203.82 386.49,201.98 ZM 386.64 172.22 C385.83,170.91 385.62,159.42 386.39,158.17 C386.85,157.43 390.07,157.00 395.10,157.00 C402.25,157.00 403.35,157.26 405.55,159.45 C408.79,162.70 408.86,167.85 405.69,170.83 C403.70,172.69 402.21,173.00 395.24,173.00 C390.77,173.00 386.90,172.65 386.64,172.22 Z" fill="rgb(254,254,254)"/>
</g>
</svg>